<svg width="1344" height="816" xmlns="http://www.w3.org/2000/svg" xmlns:xlink="http://www.w3.org/1999/xlink" overflow="hidden"><defs><clipPath id="clip0"><rect x="0" y="0" width="1344" height="816"/></clipPath><radialGradient cx="0" cy="0" r="1" gradientUnits="userSpaceOnUse" spreadMethod="pad" id="fill1" gradientTransform="matrix(-255.15 328.192 -297.947 -231.636 1236.76 243.266)"><stop offset="0" stop-color="#FFE7CB"/><stop offset="1" stop-color="#FFE7CB" stop-opacity="0"/></radialGradient><radialGradient cx="0" cy="0" r="1" gradientUnits="userSpaceOnUse" spreadMethod="pad" id="fill2" gradientTransform="matrix(-473.086 12.9584 -11.2316 -410.046 528.013 73.4117)"><stop offset="0" stop-color="#FFDBE4"/><stop offset="1" stop-color="#FFDBE4" stop-opacity="0"/></radialGradient><radialGradient cx="0" cy="0" r="1" gradientUnits="userSpaceOnUse" spreadMethod="pad" id="fill3" gradientTransform="matrix(372.09 207.28 -189.511 340.193 113.399 286.449)"><stop offset="0" stop-color="#E1BBFF" stop-opacity="0.5"/><stop offset="1" stop-color="#E1BBFF" stop-opacity="0"/></radialGradient><radialGradient cx="0" cy="0" r="1" gradientUnits="userSpaceOnUse" spreadMethod="pad" id="fill4" gradientTransform="matrix(-129.345 440.47 -303.612 -89.1565 800.879 70.5328)"><stop offset="0" stop-color="#D8FCF3"/><stop offset="1" stop-color="#D8FCF3" stop-opacity="0"/></radialGradient><clipPath id="clip5"><rect x="37" y="22" width="155" height="155"/></clipPath><clipPath id="clip6"><rect x="37" y="22" width="155" height="155"/></clipPath><clipPath id="clip7"><rect x="37" y="22" width="155" height="155"/></clipPath><clipPath id="clip8"><rect x="37" y="22" width="155" height="155"/></clipPath></defs><g clip-path="url(#clip0)"><rect x="0" y="0" width="1344" height="816" fill="#FFFFFF"/><path d="M0 0 1343.07 0 1343.07 431.833 0 431.833Z" fill="#FFFFFF" fill-opacity="0.75" transform="matrix(1 0 0 1.88962 0.889877 0)"/><path d="M0 0 1343.07 0 1343.07 431.833 0 431.833Z" fill="url(#fill1)" transform="matrix(1 0 5.95175e-17 1.88962 0.889877 5.68434e-14)"/><path d="M0 0 1343.07 0 1343.07 431.833 0 431.833Z" fill="url(#fill2)" transform="matrix(1 0 3.71985e-18 1.88962 0.889877 0)"/><path d="M0 0 1343.07 0 1343.07 431.833 0 431.833Z" fill="url(#fill3)" transform="matrix(1 0 0 1.88962 0.889877 -1.13687e-13)"/><path d="M0 0 1343.07 0 1343.07 431.833 0 431.833Z" fill="url(#fill4)" transform="matrix(1 5.95175e-17 0 1.88962 0.889877 -8.52651e-14)"/><text font-family="AQ Normal Sans,AQ Normal Sans_MSFontService,sans-serif" font-weight="400" font-size="88" direction="rtl" writing-mode="rl-tb" transform="translate(446.18 327)" x="452.333">معرفی فونت</text><text font-family="AQ Normal Sans,AQ Normal Sans_MSFontService,sans-serif" font-weight="700" font-size="221.333" direction="rtl" writing-mode="rl-tb" transform="translate(95.43 641)" x="1153.83">نُرمال سنس</text><g clip-path="url(#clip5)"><g clip-path="url(#clip6)"><g clip-path="url(#clip7)"><g clip-path="url(#clip8)"><path d="M135.605 0 137.936 0C140.354 0.155 142.78 0.0943377 145.195 0.293162 149.802 0.798598 154.376 1.62077 158.863 2.79337 164.548 4.50174 170.116 6.69869 175.269 9.674 183.161 14.1387 190.214 19.9916 196.368 26.6331 201.831 33.2947 206.516 40.6471 209.77 48.6431 211.073 52.1676 212.515 55.6753 213.205 59.3886 214.398 64.17 215.092 69.0693 215.246 73.9923L215.246 82.3485C214.913 88.1715 213.825 93.9162 212.316 99.5401 210.171 106.32 207.267 112.894 203.34 118.835 200.11 123.895 196.348 128.62 192.147 132.905 187.355 137.438 182.03 141.384 176.424 144.844 171.062 148.089 165.215 150.448 159.203 152.183 153.865 153.491 148.465 154.673 142.961 155L131.587 155C126.865 154.612 122.183 153.797 117.599 152.605 106.925 149.673 97.0763 144.184 88.464 137.279 83.9875 133.927 80.3564 129.627 76.8099 125.345 70.6631 117.911 66.5266 109.025 63.5356 99.9077 62.1413 95.0047 61.1512 89.9846 60.5987 84.92 60.4472 82.9485 60.4404 80.967 60.3091 78.9961L60.3091 76.0007C60.4404 73.9146 60.4404 71.8254 60.6021 69.7431 61.0972 65.2315 61.9595 60.7634 63.0978 56.3695 64.6134 51.3185 66.5742 46.3955 69.0292 41.7253 72.8387 34.7268 77.6653 28.2909 83.2497 22.6098 85.3076 20.5139 87.3555 18.3843 89.7234 16.6322 95.7092 12.2518 102.112 8.38685 108.983 5.56316 112.668 4.14793 116.38 2.7125 120.297 2.08577 125.312 0.855869 130.439 0.114566 135.605 0M128.67 2.98207C124.009 3.3662 119.488 4.6399 115.006 5.89337 112.028 7.02554 108.976 8.0027 106.137 9.46846 101.988 11.3015 98.1441 13.7377 94.3446 16.1874 86.6484 21.7505 79.9825 28.7222 74.6273 36.5564 71.754 41.3075 69.1438 46.254 67.3051 51.5072 65.8096 55.0183 64.9979 58.7618 64.0679 62.4482 62.3098 69.797 62.2997 77.4223 62.8085 84.9231 63.3371 90.1662 64.6842 95.2777 66.1189 100.332 67.0827 102.964 67.9313 105.642 69.0561 108.214 70.417 110.933 71.4177 113.868 73.3404 116.27 73.6134 113.126 74.1758 109.982 75.3613 107.045 78.2584 99.7154 83.9098 93.5461 90.9327 89.9877 91.9635 89.4622 93.1729 89.1585 93.9538 88.2523 94.7492 87.3931 94.8199 86.17 95.1938 85.1154 96.3424 81.887 98.1034 78.9254 100.014 76.0984 103.496 70.7746 108.1 66.2523 111.209 60.6792 112.018 59.3482 112.001 57.7678 111.964 56.2684 111.937 47.5042 112.465 38.7028 114.288 30.1138 114.696 28.1156 114.796 25.9928 115.797 24.1732 116.356 23.1692 116.733 22.0808 117.124 21.0058 117.431 21.0564 118.04 21.1609 118.347 21.2114 118.495 23.378 117.929 25.4942 117.794 27.6439 117.71 28.7626 117.677 29.8847 117.589 31.0068 116.922 37.2708 117.02 43.5819 116.939 49.8695 116.969 54.2568 116.807 58.9472 119.041 62.8931 119.919 64.4124 121.338 66.0839 123.274 65.9423 126.154 66.0162 129.048 65.4808 131.715 64.3923 133.817 63.6377 135.211 61.4103 134.834 59.1797 133.089 59.4728 131.409 60.0322 129.684 60.3894 128.572 60.3826 127.532 59.894 126.531 59.4594 124.376 58.5462 123.305 55.9314 123.837 53.7142 124.383 51.4802 125.238 49.3001 126.548 47.3997 127.387 46.2136 128.034 44.8725 129.054 43.8245 130.014 43.0226 131.368 42.6789 132.594 42.9552 135.144 43.4371 137.172 45.4251 138.296 47.6827 139.415 50.4087 139.014 53.4177 139.075 56.2852 139.031 61.5552 137.32 66.8623 133.83 70.8585 131.957 72.9239 129.97 74.9762 127.508 76.3276 124.847 77.1969 122.018 77.5138 119.229 77.5301 117.374 77.5845 115.921 76.1823 114.911 74.7808 113.294 71.9876 112.472 68.8131 112.038 65.6355 110.512 67.8123 109.249 70.1677 107.609 72.2669 106.197 74.343 104.561 76.2462 103.105 78.2916 105.2 78.6861 107.313 79.1677 109.225 80.1353 110.307 80.7415 111.489 81.85 111.206 83.2147 110.859 85.0008 110.28 86.7324 109.596 88.4176 108.548 91.2108 106.625 93.7954 103.938 95.18 101.788 96.2484 99.2996 95.9585 97.0933 96.8346 95.2001 97.5085 93.2906 98.1354 91.4112 98.843 87.7463 100.457 83.8935 102.075 81.138 105.087 78.6223 107.812 77.8607 111.546 76.8506 114.993 76.483 116.624 75.8197 118.225 75.8266 119.916 76.1798 121.005 77.1167 121.779 77.7261 122.726 80.801 127.117 84.6037 130.945 88.7433 134.335 91.1419 136.454 93.6814 138.418 96.3793 140.144 106.527 147.108 118.508 151.226 130.735 152.405 135.292 152.725 139.866 152.705 144.427 152.452 149.937 151.971 155.346 150.717 160.655 149.205 162.858 148.412 165.03 147.536 167.223 146.721 174.521 143.466 181.336 139.109 187.314 133.795 194.003 128.128 199.379 121.055 203.667 113.44 205.381 110.316 206.991 107.118 208.14 103.739 209.025 101.596 209.777 99.4023 210.271 97.1377 211.548 92.7169 212.34 88.1678 212.707 83.5854 212.983 77.9584 213.071 72.2707 212.145 66.697 210.544 55.9651 206.6 45.5902 200.578 36.5598 198.763 33.7226 196.836 30.9326 194.502 28.4964 191.784 25.4975 188.941 22.6098 185.909 19.9242 182.137 16.4266 177.61 13.9264 173.171 11.3992 162.544 5.70804 150.544 2.37217 138.448 2.54403 135.188 2.57434 131.903 2.46316 128.67 2.98207Z" fill-rule="evenodd" transform="matrix(1.0004 0 0 1 -23.3335 22)"/><path d="M140.28 19.6646C142.634 20.3522 145.012 21.707 146.081 24.019 146.535 25.4345 145.905 26.9915 145.033 28.1172 143.698 29.5091 142.318 30.9414 140.532 31.7469 138.895 30.6954 137.74 28.9732 135.9 28.2385 134.253 30.1292 132.481 32.1312 130.055 33.004 128.358 31.3257 126.606 29.7012 124.743 28.2014 123.867 27.6083 124.78 26.6916 125.197 26.1119 126.67 24.4504 128.091 22.7248 129.769 21.2621 130.264 20.6926 131.076 21.0027 131.639 21.2823 133.101 22.1013 134.327 23.264 135.681 24.2381 137.1 22.6035 138.615 21.0498 140.28 19.6646Z" fill-rule="evenodd" transform="matrix(1.0004 0 0 1 -23.3335 22)"/><path d="M193.3 46.3439C195.496 45.7356 197.307 44.2939 199.374 43.4 199.539 43.5916 199.863 43.9747 200.028 44.1662 195.843 50.017 189.247 54.3421 181.993 55.0881 176.681 55.7502 171.471 53.9959 166.177 54.0329 164.76 54.4194 163.967 55.7771 163.044 56.802 162.491 56.6138 161.941 56.4223 161.388 56.2274 162.973 52.9878 164.75 49.6843 167.603 47.3722 168.578 46.5657 169.842 46.1389 171.114 46.1926 176.958 46.5791 182.789 47.5537 188.663 47.2344 190.232 47.0832 191.776 46.7337 193.3 46.3439Z" fill-rule="evenodd" transform="matrix(1.0004 0 0 1 -23.3335 22)"/><path d="M147.264 64.0335C147.608 63.6252 148.121 63.9051 148.549 63.9727 147.723 67.4955 147.882 71.1403 147.359 74.7037 146.984 77.1982 147.035 79.727 146.748 82.2252 146.313 85.6101 146.384 89.0389 145.952 92.4238 145.544 95.5727 145.979 98.8361 144.964 101.894 143.78 105.656 142.684 109.449 141.365 113.171 140.691 113.194 140.019 113.211 139.345 113.228 139.318 111.465 139.786 109.749 139.905 108 140.225 103.455 140.377 98.8969 140.795 94.3552 141.048 88.8667 141.217 83.3681 141.645 77.8927 142.626 74.7106 143.524 71.4873 144.88 68.4361 145.558 66.9224 146.003 65.1896 147.264 64.0335Z" fill-rule="evenodd" transform="matrix(1.0004 0 0 1 -23.3335 22)"/><path d="M178.94 65.9455C179.409 65.9693 179.881 65.9924 180.356 66.0162 180.393 67.2193 180.288 68.4223 180.1 69.6085 179.779 71.647 179.783 73.7161 179.533 75.7615 178.95 80.0307 178.936 84.3538 178.511 88.6406 178.07 91.7537 178.113 94.9114 177.681 98.0283 177.226 101.421 177.51 104.896 176.697 108.242 176.086 111.079 174.963 113.768 174.1 116.531 173.837 117.347 173.496 118.139 173.152 118.924 172.572 118.927 171.989 118.927 171.412 118.927 171.391 117.866 171.459 116.804 171.614 115.753 172.022 113.003 171.965 110.21 172.265 107.447 172.71 103.663 172.663 99.8444 173.01 96.0537 173.415 91.8145 173.331 87.5484 173.701 83.3092 173.897 81.3515 173.728 79.313 174.467 77.4461 175.948 73.6084 177.075 69.6285 178.94 65.9455Z" fill-rule="evenodd" transform="matrix(1.0004 0 0 1 -23.3335 22)"/><path d="M162.307 71.3238C162.644 71.0038 163.148 71.0169 163.526 71.2631 165.451 72.2832 167.228 73.6873 168.461 75.4991 169.103 76.89 168.958 78.7525 167.819 79.8604 166.32 81.4599 164.536 83.1163 162.394 83.6687 160.179 82.2608 158.392 80.2844 156.261 78.7588 156.139 77.2063 157.436 76.1861 158.382 75.159 159.689 73.8796 160.878 72.4717 162.307 71.3238Z" fill-rule="evenodd" transform="matrix(1.0004 0 0 1 -23.3335 22)"/><path d="M121.771 89.0865C122.91 88.5241 123.874 89.5988 124.663 90.2689 127.535 92.7639 130.29 96.033 130.34 100.03 130.373 104.158 130.724 108.526 128.877 112.357 127.458 115.825 125 118.745 122.317 121.314 120.908 122.749 118.888 123.217 117.037 123.803 113.956 124.591 110.946 125.718 107.78 126.129 107.783 125.843 107.787 125.271 107.787 124.984 113.332 121.553 118.797 117.923 123.668 113.57 124.703 112.62 125.711 111.327 125.485 109.832 125.361 107.98 123.975 106.569 122.6 105.478 120.621 103.703 118.21 102.542 115.901 101.272 116.144 98.0972 118.143 95.4236 119.609 92.6963 120.294 91.4738 120.914 90.2012 121.771 89.0865Z" fill-rule="evenodd" transform="matrix(1.0004 0 0 1 -23.3335 22)"/><path d="M162.602 93.7709C163.445 93.6933 164.295 93.6764 165.145 93.697 164.832 95.7919 164.066 97.7759 163.587 99.8344 162.949 102.752 161.833 105.534 160.945 108.377 160.429 110.027 159.677 111.587 159.005 113.177 157.102 118.392 152.504 122.504 147.15 123.94 143.678 124.573 140.295 125.675 136.796 126.129 136.783 125.449 136.776 124.772 136.776 124.095 138.804 123.505 140.497 122.211 142.2 121.016 147.511 116.694 152.352 111.84 157.112 106.932 158.31 105.716 158.668 103.995 159.376 102.495 160.685 99.6791 161.576 96.695 162.602 93.7709Z" fill-rule="evenodd" transform="matrix(1.0004 0 0 1 -23.3335 22)"/></g></g></g></g><text font-family="AQ Normal Sans,AQ Normal Sans_MSFontService,sans-serif" font-weight="700" font-size="37.3333" transform="translate(209.435 76)">github.com/</text><text font-family="AQ Normal Sans,AQ Normal Sans_MSFontService,sans-serif" font-weight="700" font-size="37.3333" transform="translate(433.269 76)">azadqalam</text><text font-family="AQ Normal Sans,AQ Normal Sans_MSFontService,sans-serif" font-weight="700" font-size="37.3333" transform="translate(209.435 143)">azadqalam.github.io</text></g></svg>