<svg width="1344" height="816" xmlns="http://www.w3.org/2000/svg" xmlns:xlink="http://www.w3.org/1999/xlink" overflow="hidden"><defs><clipPath id="clip0"><rect x="0" y="0" width="1344" height="816"/></clipPath></defs><g clip-path="url(#clip0)"><rect x="0" y="0" width="1344" height="816" fill="#FFFFFF"/><path d="M0 0 2152.76 0 2152.76 816 0 816Z" fill="#FFA12F" transform="matrix(1.22201 0 0 1 -27.9432 0)"/><path d="M0 0 2152.76 0 2152.76 816 0 816Z" fill="#FFFFFF" fill-opacity="0.9" transform="matrix(1.22201 0 0 1 -27.9432 0)"/><path d="M329 93.5C329 59.5345 356.534 32 390.5 32L953.5 32C987.466 32 1015 59.5345 1015 93.5L1015 93.5C1015 127.466 987.466 155 953.5 155L390.5 155C356.534 155 329 127.466 329 93.5Z" fill="#002060" fill-rule="evenodd"/><text fill="#FBE3D6" font-family="AQ Normal Sans,AQ Normal Sans_MSFontService,sans-serif" font-weight="700" font-size="72" direction="rtl" writing-mode="rl-tb" transform="translate(400.18 107)" x="542.667">امکانات نرم‌افزاری</text><text font-family="AQ Normal Sans,AQ Normal Sans_MSFontService,sans-serif" font-weight="400" font-size="32" direction="rtl" writing-mode="rl-tb" transform="translate(175.695 228)" x="1122.33">با امکانات درنظر گرفته شده برای فونت نرمال سنس می‌توانید تغییرات زیر را بر نوشته‌ه</text><text font-family="AQ Normal Sans,AQ Normal Sans_MSFontService,sans-serif" font-weight="400" font-size="32" direction="rtl" writing-mode="rl-tb" transform="translate(74.8619 228)" x="100.833">ای خود</text><text font-family="AQ Normal Sans,AQ Normal Sans_MSFontService,sans-serif" font-weight="400" font-size="32" direction="rtl" writing-mode="rl-tb" transform="translate(1151.7 278)" x="146.333">اعمال کنید</text><text font-family="AQ Normal Sans,AQ Normal Sans_MSFontService,sans-serif" font-weight="400" font-size="32" direction="rtl" writing-mode="rl-tb" transform="translate(1142.53 278)" x="9.16667">.</text><text font-family="Arial,Arial_MSFontService,sans-serif" font-weight="400" font-size="32" transform="translate(1286.87 777)">•</text><text font-family="AQ Normal Sans,AQ Normal Sans_MSFontService,sans-serif" font-weight="700" font-size="32" direction="rtl" writing-mode="rl-tb" transform="translate(936.529 777)" x="325.5">زبان‌های پشتیبانی شده</text><text font-family="AQ Normal Sans,AQ Normal Sans_MSFontService,sans-serif" font-weight="700" font-size="32" direction="rtl" writing-mode="rl-tb" transform="translate(920.029 777)" x="16.5">:</text><text font-family="AQ Normal Sans,AQ Normal Sans_MSFontService,sans-serif" font-weight="400" font-size="32" direction="rtl" writing-mode="rl-tb" transform="translate(531.695 777)" x="388.333">انگلیسی، عربی، فارسی، کوردی</text><path d="M204 351.079C204 337.781 215.978 327 230.755 327L287.245 327C302.022 327 314 337.781 314 351.079L314 356.921C314 370.219 302.022 381 287.245 381L230.755 381C215.978 381 204 370.219 204 356.921L204 351.079Z" fill="#18181B" fill-rule="evenodd"/><text fill="#FFFFFF" font-family="AQ Normal Sans,AQ Normal Sans_MSFontService,sans-serif" font-weight="700" font-size="37.3333" transform="translate(218.394 365)">ss</text><text fill="#FFFFFF" font-family="AQ Normal Sans,AQ Normal Sans_MSFontService,sans-serif" font-weight="700" font-size="37.3333" transform="translate(258.728 365)">01</text><text font-family="AQ Normal Sans Medium,AQ Normal Sans Medium_MSFontService,sans-serif" font-weight="500" font-size="32" direction="rtl" writing-mode="rl-tb" transform="translate(338.91 366)" x="503.333">تبدیل اعداد عربی و انگلیسی به فارسی</text><path d="M204 445.079C204 431.781 215.978 421 230.755 421L287.245 421C302.022 421 314 431.781 314 445.079L314 450.921C314 464.219 302.022 475 287.245 475L230.755 475C215.978 475 204 464.219 204 450.921L204 445.079Z" fill="#18181B" fill-rule="evenodd"/><text fill="#FFFFFF" font-family="AQ Normal Sans,AQ Normal Sans_MSFontService,sans-serif" font-weight="700" font-size="37.3333" transform="translate(212.228 458)">tnum</text><text font-family="AQ Normal Sans Medium,AQ Normal Sans Medium_MSFontService,sans-serif" font-weight="500" font-size="32" direction="rtl" writing-mode="rl-tb" transform="translate(372.576 459)" x="833.667">تبدیل تمام اعداد انگلیسی، فارسی و عربی به اعداد با عرض یکس</text><text font-family="AQ Normal Sans Medium,AQ Normal Sans Medium_MSFontService,sans-serif" font-weight="500" font-size="32" direction="rtl" writing-mode="rl-tb" transform="translate(338.91 459)" x="33.6667">ان</text><text font-family="AQ Normal Sans Medium,AQ Normal Sans Medium_MSFontService,sans-serif" font-weight="500" font-size="32" direction="rtl" writing-mode="rl-tb" transform="translate(366.91 509)" x="452.667">برای استفاده در جدول‌ها، فُرم‌ها و</text><text font-family="AQ Normal Sans Medium,AQ Normal Sans Medium_MSFontService,sans-serif" font-weight="500" font-size="32" direction="rtl" writing-mode="rl-tb" transform="translate(338.91 509)" x="28">...</text><path d="M204 568.079C204 554.781 215.978 544 230.755 544L287.245 544C302.022 544 314 554.781 314 568.079L314 573.921C314 587.219 302.022 598 287.245 598L230.755 598C215.978 598 204 587.219 204 573.921L204 568.079Z" fill="#18181B" fill-rule="evenodd"/><text fill="#FFFFFF" font-family="AQ Normal Sans,AQ Normal Sans_MSFontService,sans-serif" font-weight="400" font-size="37.3333" direction="rtl" writing-mode="rl-tb" transform="translate(228.138 582)" x="63.5">ریال</text><path d="M204 662.079C204 648.781 215.978 638 230.755 638L287.245 638C302.022 638 314 648.781 314 662.079L314 667.921C314 681.219 302.022 692 287.245 692L230.755 692C215.978 692 204 681.219 204 667.921L204 662.079Z" fill="#18181B" fill-rule="evenodd"/><text fill="#FFFFFF" font-family="AQ Normal Sans,AQ Normal Sans_MSFontService,sans-serif" font-weight="400" font-size="37.3333" direction="rtl" writing-mode="rl-tb" transform="translate(214.638 675)" x="90.5">تومان</text><text font-family="AQ Normal Sans Medium,AQ Normal Sans Medium_MSFontService,sans-serif" font-weight="500" font-size="32" direction="rtl" writing-mode="rl-tb" transform="translate(429.409 583)" x="55.8333">ریال</text><text font-family="AQ Normal Sans Medium,AQ Normal Sans Medium_MSFontService,sans-serif" font-weight="500" font-size="16" direction="rtl" writing-mode="rl-tb" transform="translate(425.909 583)" x="3.5"></text><text font-family="AQ Normal Sans Medium,AQ Normal Sans Medium_MSFontService,sans-serif" font-weight="500" font-size="32" direction="rtl" writing-mode="rl-tb" transform="translate(404.409 583)" x="21.5">ء</text><text font-family="AQ Normal Sans Medium,AQ Normal Sans Medium_MSFontService,sans-serif" font-weight="500" font-size="32" direction="rtl" writing-mode="rl-tb" transform="translate(379.076 583)" x="25.3333">=</text><text font-family="AQ Normal Sans Medium,AQ Normal Sans Medium_MSFontService,sans-serif" font-weight="500" font-size="32" direction="rtl" writing-mode="rl-tb" transform="translate(338.909 583)" x="40.1667">ریالء</text><text font-family="AQ Normal Sans Medium,AQ Normal Sans Medium_MSFontService,sans-serif" font-weight="500" font-size="32" direction="rtl" writing-mode="rl-tb" transform="translate(454.076 676)" x="79.1667">تومان</text><text font-family="AQ Normal Sans Medium,AQ Normal Sans Medium_MSFontService,sans-serif" font-weight="500" font-size="16" direction="rtl" writing-mode="rl-tb" transform="translate(450.576 676)" x="3.5"></text><text font-family="AQ Normal Sans Medium,AQ Normal Sans Medium_MSFontService,sans-serif" font-weight="500" font-size="32" direction="rtl" writing-mode="rl-tb" transform="translate(429.076 676)" x="21.5">ء</text><text font-family="AQ Normal Sans Medium,AQ Normal Sans Medium_MSFontService,sans-serif" font-weight="500" font-size="32" direction="rtl" writing-mode="rl-tb" transform="translate(403.743 676)" x="25.3333">=</text><text font-family="AQ Normal Sans Medium,AQ Normal Sans Medium_MSFontService,sans-serif" font-weight="500" font-size="32" direction="rtl" writing-mode="rl-tb" transform="translate(338.909 676)" x="64.8333">تومانء</text></g></svg>